<svg xmlns="http://www.w3.org/2000/svg" width="1280" height="640" viewBox="0 0 1280 640" role="img" aria-label="TakTak (टक-टक): Your keyboard, but it goes TakTak. Fully offline, never uses the internet.">
<defs>
  <linearGradient id="bg" x1="0" y1="0" x2="1" y2="1"><stop offset="0" stop-color="#fff8f2"/><stop offset="1" stop-color="#ffe9da"/></linearGradient>
  <linearGradient id="skirt" x1="0" y1="0" x2="0" y2="1"><stop offset="0" stop-color="#E8692F"/><stop offset="1" stop-color="#BF4A17"/></linearGradient>
  <linearGradient id="top" x1="0" y1="0" x2="0" y2="1"><stop offset="0" stop-color="#FFA36A"/><stop offset="1" stop-color="#FF8040"/></linearGradient>
  <filter id="blur" x="-20%" y="-20%" width="140%" height="140%"><feGaussianBlur stdDeviation="22"/></filter>
  <clipPath id="clip"><rect x="0" y="0" width="1280" height="640" rx="0"/></clipPath>
</defs>
<g clip-path="url(#clip)">
<rect width="1280" height="640" fill="url(#bg)"/>
<defs><linearGradient id="fade" gradientUnits="userSpaceOnUse" x1="940" y1="0" x2="1150" y2="0"><stop offset="0" stop-color="#fff" stop-opacity="0"/><stop offset="1" stop-color="#fff" stop-opacity="1"/></linearGradient><mask id="m" maskUnits="userSpaceOnUse" x="0" y="0" width="1280" height="640"><rect x="940" y="0" width="340" height="640" fill="url(#fade)"/></mask></defs>
<g mask="url(#m)" opacity="0.9"><rect x="950" y="46" width="66" height="66" rx="13.2" fill="#e6d8cb"/><rect x="955.9" y="49.3" width="54.1" height="48.8" rx="9.9" fill="#ffffff" stroke="#e9dccf" stroke-width="1"/><rect x="1028" y="46" width="66" height="66" rx="13.2" fill="#e6d8cb"/><rect x="1033.9" y="49.3" width="54.1" height="48.8" rx="9.9" fill="#ffffff" stroke="#e9dccf" stroke-width="1"/><rect x="1106" y="46" width="66" height="66" rx="13.2" fill="#e6d8cb"/><rect x="1111.9" y="49.3" width="54.1" height="48.8" rx="9.9" fill="#ffffff" stroke="#e9dccf" stroke-width="1"/><rect x="1184" y="46" width="66" height="66" rx="13.2" fill="#e6d8cb"/><rect x="1189.9" y="49.3" width="54.1" height="48.8" rx="9.9" fill="#ffffff" stroke="#e9dccf" stroke-width="1"/><rect x="984" y="124" width="66" height="66" rx="13.2" fill="#e6d8cb"/><rect x="989.9" y="127.3" width="54.1" height="48.8" rx="9.9" fill="#ffffff" stroke="#e9dccf" stroke-width="1"/><rect x="1062" y="124" width="66" height="66" rx="13.2" fill="#c2410c"/><rect x="1067.9" y="127.3" width="54.1" height="48.8" rx="9.9" fill="#ff8a4c"/><text x="1095.0" y="161.0" text-anchor="middle" font-family="-apple-system, BlinkMacSystemFont, 'Segoe UI', 'Helvetica Neue', Helvetica, Arial, 'Noto Sans', 'Liberation Sans', sans-serif" font-weight="700" font-size="22.4" fill="#ffffff">T</text><rect x="1140" y="124" width="66" height="66" rx="13.2" fill="#e6d8cb"/><rect x="1145.9" y="127.3" width="54.1" height="48.8" rx="9.9" fill="#ffffff" stroke="#e9dccf" stroke-width="1"/><rect x="1218" y="124" width="66" height="66" rx="13.2" fill="#e6d8cb"/><rect x="1223.9" y="127.3" width="54.1" height="48.8" rx="9.9" fill="#ffffff" stroke="#e9dccf" stroke-width="1"/><rect x="1014" y="202" width="66" height="66" rx="13.2" fill="#e6d8cb"/><rect x="1019.9" y="205.3" width="54.1" height="48.8" rx="9.9" fill="#ffffff" stroke="#e9dccf" stroke-width="1"/><rect x="1092" y="202" width="66" height="66" rx="13.2" fill="#e6d8cb"/><rect x="1097.9" y="205.3" width="54.1" height="48.8" rx="9.9" fill="#ffffff" stroke="#e9dccf" stroke-width="1"/><rect x="1170" y="202" width="66" height="66" rx="13.2" fill="#c2410c"/><rect x="1175.9" y="205.3" width="54.1" height="48.8" rx="9.9" fill="#ff8a4c"/><text x="1203.0" y="239.0" text-anchor="middle" font-family="-apple-system, BlinkMacSystemFont, 'Segoe UI', 'Helvetica Neue', Helvetica, Arial, 'Noto Sans', 'Liberation Sans', sans-serif" font-weight="700" font-size="22.4" fill="#ffffff">K</text><rect x="1248" y="202" width="66" height="66" rx="13.2" fill="#e6d8cb"/><rect x="1253.9" y="205.3" width="54.1" height="48.8" rx="9.9" fill="#ffffff" stroke="#e9dccf" stroke-width="1"/><rect x="968" y="280" width="66" height="66" rx="13.2" fill="#e6d8cb"/><rect x="973.9" y="283.3" width="54.1" height="48.8" rx="9.9" fill="#ffffff" stroke="#e9dccf" stroke-width="1"/><rect x="1046" y="280" width="66" height="66" rx="13.2" fill="#e6d8cb"/><rect x="1051.9" y="283.3" width="54.1" height="48.8" rx="9.9" fill="#ffffff" stroke="#e9dccf" stroke-width="1"/><rect x="1124" y="280" width="66" height="66" rx="13.2" fill="#e6d8cb"/><rect x="1129.9" y="283.3" width="54.1" height="48.8" rx="9.9" fill="#ffffff" stroke="#e9dccf" stroke-width="1"/><rect x="1202" y="280" width="66" height="66" rx="13.2" fill="#e6d8cb"/><rect x="1207.9" y="283.3" width="54.1" height="48.8" rx="9.9" fill="#ffffff" stroke="#e9dccf" stroke-width="1"/><rect x="950" y="358" width="66" height="66" rx="13.2" fill="#e6d8cb"/><rect x="955.9" y="361.3" width="54.1" height="48.8" rx="9.9" fill="#ffffff" stroke="#e9dccf" stroke-width="1"/><rect x="1028" y="358" width="66" height="66" rx="13.2" fill="#e6d8cb"/><rect x="1033.9" y="361.3" width="54.1" height="48.8" rx="9.9" fill="#ffffff" stroke="#e9dccf" stroke-width="1"/><rect x="1106" y="358" width="66" height="66" rx="13.2" fill="#e6d8cb"/><rect x="1111.9" y="361.3" width="54.1" height="48.8" rx="9.9" fill="#ffffff" stroke="#e9dccf" stroke-width="1"/><rect x="1184" y="358" width="66" height="66" rx="13.2" fill="#e6d8cb"/><rect x="1189.9" y="361.3" width="54.1" height="48.8" rx="9.9" fill="#ffffff" stroke="#e9dccf" stroke-width="1"/><rect x="984" y="436" width="66" height="66" rx="13.2" fill="#e6d8cb"/><rect x="989.9" y="439.3" width="54.1" height="48.8" rx="9.9" fill="#ffffff" stroke="#e9dccf" stroke-width="1"/><rect x="1062" y="436" width="66" height="66" rx="13.2" fill="#e6d8cb"/><rect x="1067.9" y="439.3" width="54.1" height="48.8" rx="9.9" fill="#ffffff" stroke="#e9dccf" stroke-width="1"/><rect x="1140" y="436" width="66" height="66" rx="13.2" fill="#e6d8cb"/><rect x="1145.9" y="439.3" width="54.1" height="48.8" rx="9.9" fill="#ffffff" stroke="#e9dccf" stroke-width="1"/><rect x="1218" y="436" width="66" height="66" rx="13.2" fill="#e6d8cb"/><rect x="1223.9" y="439.3" width="54.1" height="48.8" rx="9.9" fill="#ffffff" stroke="#e9dccf" stroke-width="1"/><rect x="1014" y="514" width="66" height="66" rx="13.2" fill="#e6d8cb"/><rect x="1019.9" y="517.3" width="54.1" height="48.8" rx="9.9" fill="#ffffff" stroke="#e9dccf" stroke-width="1"/><rect x="1092" y="514" width="66" height="66" rx="13.2" fill="#e6d8cb"/><rect x="1097.9" y="517.3" width="54.1" height="48.8" rx="9.9" fill="#ffffff" stroke="#e9dccf" stroke-width="1"/><rect x="1170" y="514" width="66" height="66" rx="13.2" fill="#e6d8cb"/><rect x="1175.9" y="517.3" width="54.1" height="48.8" rx="9.9" fill="#ffffff" stroke="#e9dccf" stroke-width="1"/><rect x="1248" y="514" width="66" height="66" rx="13.2" fill="#e6d8cb"/><rect x="1253.9" y="517.3" width="54.1" height="48.8" rx="9.9" fill="#ffffff" stroke="#e9dccf" stroke-width="1"/></g>
<g transform="translate(72,199.0) scale(0.25)">
  <rect x="100" y="132" width="824" height="824" rx="184" fill="#000" opacity="0.3" filter="url(#blur)"/>
  <rect x="100" y="100" width="824" height="824" rx="184" fill="url(#skirt)"/>
  <rect x="176" y="136" width="672" height="640" rx="132" fill="url(#top)"/>
  <rect x="176" y="136" width="672" height="640" rx="132" fill="none" stroke="#fff" stroke-opacity="0.25" stroke-width="6"/>
  <g fill="#fff" fill-opacity="0.96"><rect x="356" y="280" width="312" height="72" rx="36"/><rect x="476" y="280" width="72" height="352" rx="36"/></g>
</g>
<line x1="310.0" y1="211.9" x2="325.0" y2="185.9" stroke="#e8692f" stroke-width="7" stroke-linecap="round"/>
<line x1="315.7" y1="218.1" x2="346.5" y2="203.7" stroke="#e8692f" stroke-width="7" stroke-linecap="round"/>
<line x1="316.8" y1="226.4" x2="346.3" y2="231.6" stroke="#e8692f" stroke-width="7" stroke-linecap="round"/>
<text x="392" y="298" font-family="-apple-system, BlinkMacSystemFont, 'Segoe UI', 'Helvetica Neue', Helvetica, Arial, 'Noto Sans', 'Liberation Sans', sans-serif" font-weight="800" font-size="104" letter-spacing="-3" fill="#1c1714">TakTak<tspan dx="26" font-family="'Kohinoor Devanagari', 'Devanagari Sangam MN', 'Nirmala UI', 'Noto Sans Devanagari', 'Lohit Devanagari', Mangal, sans-serif" font-weight="600" font-size="46" letter-spacing="0" fill="#c2410c">टक-टक</tspan></text>
<text x="394" y="358" font-family="-apple-system, BlinkMacSystemFont, 'Segoe UI', 'Helvetica Neue', Helvetica, Arial, 'Noto Sans', 'Liberation Sans', sans-serif" font-weight="500" font-size="34" fill="#5b5048">Your keyboard, but it goes <tspan font-weight="700" fill="#c2410c">TakTak.</tspan></text>
<rect x="392" y="390" width="450" height="50" rx="25" fill="#ffffff" stroke="#f1c7aa" stroke-width="1.5"/>
<g transform="translate(410,401) scale(1.15)"><path d="M12 3 4.5 6v5.5c0 4.6 3.1 8.3 7.5 9.5 4.4-1.2 7.5-4.9 7.5-9.5V6z M8.8 12l2.2 2.2 4.4-4.4" fill="none" stroke="#8a2d08" stroke-width="2.2" stroke-linecap="round" stroke-linejoin="round"/></g>
<text x="442" y="422" font-family="-apple-system, BlinkMacSystemFont, 'Segoe UI', 'Helvetica Neue', Helvetica, Arial, 'Noto Sans', 'Liberation Sans', sans-serif" font-weight="600" font-size="21" fill="#8a2d08">Fully offline · never uses the internet</text>
</g>
</svg>
